<svg width="50" height="50" viewBox="0 0 50 50" fill="none" xmlns="http://www.w3.org/2000/svg">
<g id="Shoppingcart">
<path id="Vector" d="M23.4377 39.0625C23.4377 40.7917 22.0418 42.1875 20.3127 42.1875C18.5835 42.1875 17.1877 40.7917 17.1877 39.0625C17.1877 37.3333 18.5835 35.9375 20.3127 35.9375C22.0418 35.9375 23.4377 37.3333 23.4377 39.0625ZM33.8543 35.9375C32.1252 35.9375 30.7293 37.3333 30.7293 39.0625C30.7293 40.7917 32.1252 42.1875 33.8543 42.1875C35.5835 42.1875 36.9793 40.7917 36.9793 39.0625C36.9793 37.3333 35.5835 35.9375 33.8543 35.9375ZM43.1877 16L39.021 32.6667C38.937 33.0063 38.7415 33.3079 38.4658 33.5232C38.19 33.7385 37.85 33.8551 37.5002 33.8542H16.6668C15.9168 33.8542 15.271 33.3125 15.1252 32.5625L11.1877 10.9375H8.3335C7.47933 10.9375 6.771 10.2292 6.771 9.375C6.771 8.52083 7.47933 7.8125 8.3335 7.8125H12.5002C13.2502 7.8125 13.896 8.35417 14.0418 9.10417L14.9377 14.0625H41.6668C41.9037 14.0635 42.1374 14.1181 42.3502 14.2221C42.563 14.3262 42.7496 14.4771 42.8959 14.6634C43.0421 14.8498 43.1444 15.0668 43.1949 15.2983C43.2454 15.5297 43.243 15.7696 43.1877 16ZM39.6668 17.1875H15.5002L17.9585 30.7292H36.271L39.6668 17.1875Z" fill="white"/>
</g>
</svg>
